<svg width="36" height="43" viewBox="0 0 36 43" fill="none" xmlns="http://www.w3.org/2000/svg">
<path d="M5.4 14.3333V12.5417C5.4 9.21541 6.7275 6.02539 9.09046 3.67337C11.4534 1.32135 14.6583 0 18 0C21.3417 0 24.5466 1.32135 26.9095 3.67337C29.2725 6.02539 30.6 9.21541 30.6 12.5417V14.3333H36V37.625C36 39.0505 35.4311 40.4177 34.4184 41.4257C33.4057 42.4337 32.0322 43 30.6 43H5.4C3.96783 43 2.59432 42.4337 1.58162 41.4257C0.568928 40.4177 0 39.0505 0 37.625V14.3333H5.4ZM16.2 32.25H19.8V25.0833H16.2V32.25ZM9 14.3333H27V12.5417C27 10.1658 26.0518 7.88718 24.364 6.20717C22.6761 4.52715 20.3869 3.58333 18 3.58333C15.6131 3.58333 13.3239 4.52715 11.636 6.20717C9.94821 7.88718 9 10.1658 9 12.5417V14.3333Z" fill="#FFE9E9"/>
</svg>
