<svg width="58" height="58" viewBox="0 0 60 60" fill="none" xmlns="http://www.w3.org/2000/svg">
<g clip-path="url(#clip0_0_63)">
<path d="M60 25.1075V60H50V32.5C50 30.5109 49.2099 28.6032 47.8033 27.1967C46.3968 25.7902 44.4892 25 42.5 25H17.5C15.5109 25 13.6033 25.7902 12.1967 27.1967C10.7902 28.6032 10 30.5109 10 32.5V60H2.58437e-05V25.1075C-0.00297148 23.9685 0.254789 22.8439 0.753559 21.82C1.25233 20.796 1.97887 19.8998 2.87753 19.2L25.3775 1.59499C26.6955 0.556445 28.3246 -0.00830078 30.0025 -0.00830078C31.6805 -0.00830078 33.3096 0.556445 34.6275 1.59499L57.1275 19.2025C58.0255 19.902 58.7513 20.798 59.2492 21.8216C59.7472 22.8452 60.004 23.9692 60 25.1075ZM45 32.5V60H15V32.5C15 31.8369 15.2634 31.2011 15.7323 30.7322C16.2011 30.2634 16.837 30 17.5 30H42.5C43.1631 30 43.799 30.2634 44.2678 30.7322C44.7366 31.2011 45 31.8369 45 32.5ZM35 50H25V55H35V50Z" fill="#FCE9FF"/>
</g>
<defs>
<clipPath id="clip0_0_63">
<rect width="60" height="60" fill="white"/>
</clipPath>
</defs>
</svg>
