<svg width="60" height="60" viewBox="0 0 60 60" fill="none" xmlns="http://www.w3.org/2000/svg">
<g clip-path="url(#clip0_0_34)">
<path d="M30 35C28.0109 35 26.1032 35.7902 24.6967 37.1967C23.2902 38.6032 22.5 40.5109 22.5 42.5V60.065H37.5V42.5C37.5 40.5109 36.7098 38.6032 35.3033 37.1967C33.8968 35.7902 31.9891 35 30 35Z" fill="#FFE9E9"/>
<path d="M33.345 2.08252C32.4269 1.25611 31.2353 0.798828 30 0.798828C28.7647 0.798828 27.5731 1.25611 26.655 2.08252L0 26.0725V52.0725C0 54.1942 0.842855 56.2291 2.34315 57.7294C3.84344 59.2297 5.87827 60.0725 8 60.0725H17.5V42.5C17.5 39.1848 18.817 36.0054 21.1612 33.6612C23.5054 31.317 26.6848 30 30 30C33.3152 30 36.4946 31.317 38.8388 33.6612C41.183 36.0054 42.5 39.1848 42.5 42.5V60.065H52C54.1217 60.065 56.1566 59.2222 57.6569 57.7219C59.1571 56.2216 60 54.1867 60 52.065V26.065L33.345 2.08252Z" fill="#FFE9E9"/>
</g>
<defs>
<clipPath id="clip0_0_34">
<rect width="60" height="60" fill="white"/>
</clipPath>
</defs>
</svg>
