<svg width="60" height="60" viewBox="0 0 60 60" fill="none" xmlns="http://www.w3.org/2000/svg">
<g clip-path="url(#clip0_0_53)">
<path d="M30 0C23.3718 0.00727899 17.0172 2.64354 12.3304 7.33037C7.64354 12.0172 5.00728 18.3718 5 25C5 38.205 26 56.3325 28.385 58.3575L30 59.7225L31.615 58.3575C34 56.3325 55 38.205 55 25C54.9927 18.3718 52.3565 12.0172 47.6696 7.33037C42.9828 2.64354 36.6282 0.00727899 30 0V0ZM30 37.5C27.5277 37.5 25.111 36.7669 23.0554 35.3934C20.9998 34.0198 19.3976 32.0676 18.4515 29.7835C17.5054 27.4995 17.2579 24.9861 17.7402 22.5614C18.2225 20.1366 19.413 17.9093 21.1612 16.1612C22.9093 14.413 25.1366 13.2225 27.5614 12.7402C29.9861 12.2579 32.4995 12.5054 34.7835 13.4515C37.0676 14.3976 39.0199 15.9998 40.3934 18.0554C41.7669 20.111 42.5 22.5277 42.5 25C42.496 28.314 41.1778 31.4911 38.8345 33.8344C36.4911 36.1778 33.314 37.496 30 37.5Z" fill="#E9F4FF"/>
<path d="M30 32.5C34.1421 32.5 37.5 29.1421 37.5 25C37.5 20.8579 34.1421 17.5 30 17.5C25.8579 17.5 22.5 20.8579 22.5 25C22.5 29.1421 25.8579 32.5 30 32.5Z" fill="#E9F4FF"/>
</g>
<defs>
<clipPath id="clip0_0_53">
<rect width="60" height="60" fill="white"/>
</clipPath>
</defs>
</svg>
