<svg width="60" height="60" viewBox="0 0 60 60" fill="none" xmlns="http://www.w3.org/2000/svg">
<g clip-path="url(#clip0_0_19)">
<path d="M18.75 32.5C16.525 32.5 14.3499 31.8402 12.4998 30.604C10.6498 29.3679 9.20784 27.6109 8.35636 25.5552C7.50487 23.4995 7.28208 21.2375 7.71617 19.0552C8.15025 16.873 9.22171 14.8684 10.795 13.2951C12.3684 11.7217 14.3729 10.6503 16.5552 10.2162C18.7375 9.78209 20.9995 10.0049 23.0552 10.8564C25.1109 11.7078 26.8679 13.1498 28.104 14.9998C29.3402 16.8499 30 19.025 30 21.25C29.9967 24.2327 28.8104 27.0922 26.7013 29.2013C24.5922 31.3104 21.7327 32.4967 18.75 32.5ZM35 60H2.5C1.83696 60 1.20107 59.7366 0.732233 59.2678C0.263392 58.7989 0 58.163 0 57.5V56.25C0 51.2772 1.97544 46.5081 5.49175 42.9918C9.00805 39.4754 13.7772 37.5 18.75 37.5C23.7228 37.5 28.4919 39.4754 32.0083 42.9918C35.5246 46.5081 37.5 51.2772 37.5 56.25V57.5C37.5 58.163 37.2366 58.7989 36.7678 59.2678C36.2989 59.7366 35.663 60 35 60ZM43.75 22.5C41.525 22.5 39.3499 21.8402 37.4998 20.604C35.6498 19.3679 34.2078 17.6109 33.3564 15.5552C32.5049 13.4995 32.2821 11.2375 32.7162 9.05524C33.1502 6.87295 34.2217 4.86839 35.7951 3.29505C37.3684 1.72171 39.3729 0.650254 41.5552 0.216171C43.7375 -0.217913 45.9995 0.00487447 48.0552 0.85636C50.1109 1.70785 51.8679 3.14979 53.104 4.99984C54.3402 6.84989 55 9.02497 55 11.25C54.9967 14.2327 53.8104 17.0922 51.7013 19.2013C49.5922 21.3104 46.7327 22.4967 43.75 22.5ZM40.1975 27.5525C37.8691 27.8649 35.6302 28.6548 33.6213 29.8726C31.6123 31.0905 29.8764 32.7101 28.5225 34.63C34.1247 37.1741 38.5265 41.7856 40.8075 47.5H57.5C58.163 47.5 58.7989 47.2366 59.2678 46.7678C59.7366 46.2989 60 45.663 60 45V44.905C59.9974 42.413 59.4632 39.9503 58.4332 37.6811C57.4031 35.412 55.9008 33.3887 54.0265 31.7464C52.1523 30.104 49.9493 28.8804 47.5646 28.1572C45.1798 27.434 42.6683 27.2278 40.1975 27.5525Z" fill="#FFF6E9"/>
</g>
<defs>
<clipPath id="clip0_0_19">
<rect width="60" height="60" fill="white"/>
</clipPath>
</defs>
</svg>
